<?xml version="1.0" standalone="no"?><!DOCTYPE svg PUBLIC "-//W3C//DTD SVG 1.1//EN" "http://www.w3.org/Graphics/SVG/1.1/DTD/svg11.dtd"><svg class="icon" width="200px" height="200.00px" viewBox="0 0 1024 1024" version="1.1" xmlns="http://www.w3.org/2000/svg"><path fill="#1296db" d="M934.9632 543.6928v435.7632a44.544 44.544 0 1 1-89.088 0v-435.7632a44.544 44.544 0 0 1 89.088 0z m-44.544-416.512c24.576 0 44.544-19.968 44.544-44.544V44.544a44.544 44.544 0 1 0-89.088 0v38.0928c0 24.576 19.968 44.544 44.544 44.544zM265.6768 512c0 73.8816-59.5968 133.9392-132.8128 133.9392C59.5968 645.9392 0 585.8816 0 512s59.5968-133.9392 132.864-133.9392c73.216 0 132.8128 60.0576 132.8128 133.9392zM176.64 512a44.3904 44.3904 0 0 0-43.776-44.9024 44.3904 44.3904 0 0 0-43.8272 44.9024c0 24.7808 19.6608 44.9024 43.8272 44.9024A44.3904 44.3904 0 0 0 176.64 512z m468.224 218.9824c0 73.8816-59.5968 133.9392-132.864 133.9392-73.2672 0-132.864-60.0576-132.864-133.9392S438.7328 597.0432 512 597.0432c73.2672 0 132.864 60.0576 132.864 133.9392z m-89.088 0A44.3904 44.3904 0 0 0 512 686.08a44.3904 44.3904 0 0 0-43.776 44.9024c0 24.7808 19.6096 44.9024 43.776 44.9024a44.3904 44.3904 0 0 0 43.776-44.9024zM1024 318.6688c0 73.8816-59.5968 133.9904-132.864 133.9904-73.216 0-132.8128-60.1088-132.8128-133.9904 0-73.8304 59.5968-133.9392 132.8128-133.9392C964.4032 184.7296 1024 244.8384 1024 318.6688z m-89.0368 0a44.4416 44.4416 0 0 0-43.8272-44.9024 44.4416 44.4416 0 0 0-43.776 44.9024c0 24.7808 19.6608 44.9536 43.776 44.9536a44.4416 44.4416 0 0 0 43.8272-44.9536zM512 909.3632a44.544 44.544 0 0 0-44.544 44.4928v25.6a44.544 44.544 0 1 0 89.0368 0v-25.6a44.4928 44.4928 0 0 0-44.4928-44.4928z m0-367.2576c24.576 0 44.4928-19.9168 44.4928-44.4928V44.544a44.544 44.544 0 1 0-89.0368 0v453.0688c0 24.576 19.9168 44.4928 44.544 44.4928z m-378.4704 162.2016a44.4928 44.4928 0 0 0-44.4928 44.4928v230.656a44.544 44.544 0 1 0 89.0368 0v-230.656a44.544 44.544 0 0 0-44.544-44.4928z m0-382.3616a44.544 44.544 0 0 0 44.544-44.544V44.544a44.544 44.544 0 1 0-89.0368 0v232.8576c0 24.576 19.9168 44.544 44.4928 44.544z" /></svg>