<?xml version="1.0" standalone="no"?><!DOCTYPE svg PUBLIC "-//W3C//DTD SVG 1.1//EN" "http://www.w3.org/Graphics/SVG/1.1/DTD/svg11.dtd"><svg class="icon" width="200px" height="200.00px" viewBox="0 0 1024 1024" version="1.1" xmlns="http://www.w3.org/2000/svg"><path fill="#1296db" d="M319.148226 944.981319 64.757375 944.981319 64.757375 240.904699l254.390851 0L319.148226 944.981319zM126.427946 883.310747 257.477654 883.310747 257.477654 302.57527 126.427946 302.57527 126.427946 883.310747zM638.203842 944.981319 383.811967 944.981319 383.811967 433.627025l254.391874 0L638.203842 944.981319zM445.482539 883.310747l131.049708 0L576.532247 495.297596 445.482539 495.297596 445.482539 883.310747zM957.258435 944.981319l-254.393921 0L702.864514 79.018681l254.393921 0L957.258435 944.981319zM764.536109 883.310747l131.050732 0L895.58684 140.690276 764.536109 140.690276 764.536109 883.310747z" /></svg>