<?xml version="1.0" standalone="no"?><!DOCTYPE svg PUBLIC "-//W3C//DTD SVG 1.1//EN" "http://www.w3.org/Graphics/SVG/1.1/DTD/svg11.dtd"><svg class="icon" width="200px" height="200.00px" viewBox="0 0 1024 1024" version="1.1" xmlns="http://www.w3.org/2000/svg"><path fill="#1296db" d="M369.57 399.21m-21.76 0a21.76 21.76 0 1 0 43.52 0 21.76 21.76 0 1 0-43.52 0Z"  /><path fill="#1296db" d="M481.46 398.41c0.01 12.02 9.75 21.76 21.77 21.75 12.02-0.01 21.76-9.75 21.75-21.77 0-12.02-9.75-21.76-21.77-21.75-12.01 0-21.75 9.74-21.75 21.76v0.01zM650.98 533.25c-0.01 11.27 9.1 20.4 20.36 20.42 11.27 0.01 20.4-9.11 20.42-20.36 0.01-11.27-9.11-20.4-20.36-20.42-3.6-0.01-7.13 0.93-10.24 2.74a20.356 20.356 0 0 0-10.18 17.62zM548.11 533.25c-0.01 11.27 9.1 20.4 20.36 20.42 11.27 0.01 20.4-9.11 20.42-20.36 0.01-11.27-9.11-20.4-20.36-20.42-3.6-0.01-7.13 0.93-10.24 2.74a20.335 20.335 0 0 0-10.18 17.62z"  /><path fill="#1296db" d="M511.53 63.99C264.11 64.26 63.73 265.05 64 512.48S265.06 960.27 512.47 960C759.71 959.74 960 759.24 960 512c0.01-247.4-200.53-447.99-447.94-448-0.18 0-0.35 0-0.53-0.01z m-76.65 551.45c-22.3-0.85-44.43-4.13-66.03-9.76l-66.06 32.56 18.75-56.2c-45.2-26.62-73.53-74.61-75.04-127.05 0-89.6 84.82-159.65 188.37-159.65 92.28 0 173.69 56.2 190 131.96-5.93-0.68-11.9-0.96-17.87-0.83-84.92-3.33-156.45 62.82-159.78 147.72-0.01 0.44-0.03 0.88-0.04 1.32 0.17 13.23 2.09 26.38 5.69 39.11-6.52 0-12.23 0.8-17.87 0.8h-0.12z m275.61 65.99l13.84 47.24-51.38-28.52a226.832 226.832 0 0 1-56.26 9.76c-89.69 0-159.82-61.08-159.82-136.01S527 437.86 616.69 437.86c84.82 0 159.86 61.08 159.86 136.04a141.56 141.56 0 0 1-66.06 107.53z"  /></svg>