<?xml version="1.0" standalone="no"?><!DOCTYPE svg PUBLIC "-//W3C//DTD SVG 1.1//EN" "http://www.w3.org/Graphics/SVG/1.1/DTD/svg11.dtd"><svg t="1598615544180" class="icon" viewBox="0 0 1024 1024" version="1.1" xmlns="http://www.w3.org/2000/svg" p-id="4816" xmlns:xlink="http://www.w3.org/1999/xlink" width="200" height="200"><defs><style type="text/css"></style></defs><path d="M268.80192 838.570667c1.493333-1.322667 2.688-2.688 4.053333-4.010667l0.341334-0.426667c-5.546667 5.376-5.802667 5.802667-4.352 4.437334z" fill="#40c9c6" p-id="4817"></path><path d="M383.020587 501.504L112.855253 366.805333l-0.853333-0.426666c-12.202667-5.674667-24.32-8.533333-35.968-8.533334-15.189333 0-29.098667 5.205333-39.125333 14.634667A49.962667 49.962667 0 0 0 21.335253 409.344v363.349333c0 15.104 6.272 31.829333 17.706667 47.061334 11.178667 14.933333 26.538667 27.52 43.306667 35.413333L352.428587 989.866667l0.768 0.426666 0.213333 0.042667c12.288 5.674667 24.405333 8.533333 35.968 8.533333 15.189333 0 29.098667-5.162667 39.125333-14.592 10.026667-9.429333 15.573333-22.528 15.573334-36.906666V584.106667c0-15.146667-6.314667-31.872-17.706667-47.104a117.76 117.76 0 0 0-43.349333-35.413334z m570.88-129.024a56.490667 56.490667 0 0 0-39.125334-14.634667c-11.690667 0-23.765333 2.901333-35.968 8.533334l-271.018666 135.168c-16.768 7.893333-32.128 20.48-43.306667 35.413333-11.434667 15.232-17.706667 32-17.706667 47.104v363.306667c0 14.378667 5.546667 27.477333 15.573334 36.906666 9.984 9.386667 23.893333 14.592 39.082666 14.592h0.170667c12.458667-0.213333 24.874667-3.2 36.010667-8.618666l269.781333-135.082667c16.768-7.893333 32.170667-20.48 43.349333-35.413333 11.392-15.232 17.664-32 17.664-47.146667l1.024-363.264c0-14.336-5.546667-27.434667-15.530666-36.864z m-96-118.272c23.893333-11.477333 37.461333-29.866667 37.333333-50.432-0.170667-20.394667-13.696-38.4-37.205333-49.365333L557.655253 12.928c-16.213333-7.594667-37.12-11.733333-58.794666-11.733333-22.869333 0-44.928 4.522667-62.08 12.8L133.207253 161.536c-23.808 11.52-37.418667 29.909333-37.248 50.474667 0.128 20.352 13.653333 38.357333 37.162667 49.322666l300.373333 141.482667c11.52 5.418667 25.514667 9.088 40.533334 10.752l-1.109334 1.024h19.370667c22.826667 0 44.885333-4.565333 62.122667-12.885333l303.488-147.498667z" p-id="4818"></path></svg>