<?xml version="1.0" standalone="no"?><!DOCTYPE svg PUBLIC "-//W3C//DTD SVG 1.1//EN" "http://www.w3.org/Graphics/SVG/1.1/DTD/svg11.dtd"><svg t="1578555428556" class="icon" viewBox="0 0 1610 1024" version="1.1" xmlns="http://www.w3.org/2000/svg" p-id="1994" xmlns:xlink="http://www.w3.org/1999/xlink" width="314.453125" height="200"><defs><style type="text/css"></style></defs><path d="M465.058792 25.033542L47.020519 451.697604c-32.627987 33.628079-32.627987 87.132977 0 120.636045l417.913261 426.664062c15.501419 16.001465 36.878376 25.002289 59.130414 25.002289 22.252037 0 43.628994-9.000824 59.130413-25.002289 32.627987-33.628079 32.627987-87.132977 0-120.636045L307.919405 597.460949h801.323363c46.254235 0 83.632657-38.128491 83.632657-85.382817s-37.378422-85.382817-83.632657-85.382817h-801.323363L583.194607 145.669586c15.751442-16.126476 24.502243-37.753456 24.502244-60.255516 0-22.002014-8.250755-43.754006-24.502244-60.380528-32.627987-33.378056-85.63284-33.378056-118.135815 0z m0 0" p-id="1995"></path></svg>