<?xml version="1.0" standalone="no"?><!DOCTYPE svg PUBLIC "-//W3C//DTD SVG 1.1//EN" "http://www.w3.org/Graphics/SVG/1.1/DTD/svg11.dtd"><svg t="1598663545277" class="icon" viewBox="0 0 1500 1024" version="1.1" xmlns="http://www.w3.org/2000/svg" p-id="10121" xmlns:xlink="http://www.w3.org/1999/xlink" width="292.96875" height="200"><defs><style type="text/css"></style></defs><path d="M1242.004236 452.271746c-133.534772-137.585057-319.598622-223.388781-525.415398-223.388781-205.816777 0-391.880626 85.803724-525.415398 223.388781L61.065831 321.478705C227.750626 150.556689 459.738474 44.252293 716.588838 44.252293s488.838212 106.304396 655.523006 277.226412l-130.107608 130.793041zM716.588838 413.513636a548.034681 548.034681 0 0 1 395.806287 169.052654l-130.294545 130.979977A364.525626 364.525626 0 0 0 716.588838 598.144308a364.525626 364.525626 0 0 0-265.511743 115.401959L320.782551 582.56629A548.034681 548.034681 0 0 1 716.588838 413.513636z m0 369.261344a181.951253 181.951253 0 0 1 135.778007 61.252768L716.588838 980.428875l-135.778007-136.401127a181.951253 181.951253 0 0 1 135.778007-61.252768z" p-id="10122"></path></svg>