<?xml version="1.0" standalone="no"?><!DOCTYPE svg PUBLIC "-//W3C//DTD SVG 1.1//EN" "http://www.w3.org/Graphics/SVG/1.1/DTD/svg11.dtd"><svg t="1599186477578" class="icon" viewBox="0 0 1024 1024" version="1.1" xmlns="http://www.w3.org/2000/svg" p-id="2630" xmlns:xlink="http://www.w3.org/1999/xlink" width="128" height="128"><defs><style type="text/css"></style></defs><path d="M128.921 1.014C58.243 1.014 0.382 57.861 0.382 128.538l-0.381 895.461 1024-1024L128.92 1.016z m163.56 274.844c1.523-7.739 2.284-14.719 2.284-20.937 18.018 0.508 34.515 2.03 49.487 4.694-1.523 6.725-2.538 13.958-3.045 21.698-17.511-4.06-33.753-5.964-48.726-5.455z m-98.213 251.623l51.898 51.898c11.293 13.45 23.728 12.943 37.179-1.522l76.641-76.641c9.262-8.247 14.085-15.607 14.339-22.079s-6.091-17.637-18.907-33.626c9.263-2.029 18.527-5.71 27.916-10.785 10.786 17.003 16.749 29.946 17.765 38.701 1.014 8.755-1.776 17.003-8.502 24.743L288.928 601.839c-18.018 19.033-34.895 19.921-50.248 2.284l-66.617-66.617c-5.202-5.202-14.973-14.465-29.438-27.916l18.527-18.525a437.858 437.858 0 0 0 20.937 22.459l101.386-101.383-48.726-48.726-85.904 85.904c-11.929 11.927-24.997 25.505-39.463 40.985l-15.481-15.481c15.481-14.465 28.931-27.28 40.224-38.701l103.669-103.669a804.844 804.844 0 0 0 26.265 27.916l28.677 28.677c10.786 10.786 21.698 21.191 32.484 30.961l-17.003 17.003-11.547-11.547-102.4 102.019z m273.194-110.648c-6.725-1.523-14.465-1.523-23.221 0 1.014-8.249-0.254-15.228-3.807-20.937l-75.881-75.88c-6.218 6.218-14.211 14.719-23.982 25.505l-13.958-13.958c9.77-8.755 18.525-17.003 26.266-24.743l13.958-13.958c8.249 9.263 17.511 19.033 27.916 29.438l51.137 51.137c-0.508-8.755-1.269-18.272-2.284-28.677 5.71 2.538 12.688 4.441 20.937 5.456 0 14.465 0.254 27.154 0.761 37.941 0.254 10.785 1.014 20.428 2.157 28.677z m2.284-135.52c1.014 6.218 2.284 13.197 3.807 20.937-22.206 3.553-37.941 6.979-47.203 10.025a110.142 110.142 0 0 0-4.695-18.525c18.653-5.202 34.641-9.263 48.091-12.434z m143.131 6.98c-18.018 0.508-40.224 4.06-66.617 10.786-1.014-8.248-2.538-14.973-4.695-20.175 31.469-6.725 54.436-11.039 68.901-13.197 0.127 7.36 0.887 14.846 2.411 22.586z m-78.925-41.746c9.263-9.263 19.541-20.049 30.961-32.484l13.958 13.958c-10.279 9.263-20.937 19.287-31.722 30.201l-21.698 21.698c6.218 14.465 9.009 28.17 8.502 40.985-0.508 12.943-2.538 24.997-6.218 36.417-3.553 11.293-7.233 20.937-10.786 28.677a305.733 305.733 0 0 0-22.459-2.284c10.786-15.988 17.383-32.356 19.795-49.106 2.284-16.749 1.142-30.073-3.426-39.843l-19.287 19.287c-9.772 9.772-19.795 20.429-30.201 31.722l-13.958-13.958a724.865 724.865 0 0 0 31.722-30.198l23.221-23.221c-7.233-9.262-15.227-19.032-23.982-29.438-8.755-10.278-16.749-19.033-23.982-26.266 6.218-3.045 12.69-7.486 19.287-13.197 4.187 7.233 10.151 15.609 18.145 25.124 7.994 9.517 15.861 19.795 23.601 30.58l18.525-18.653z m-116.103 29.311c-1.523-6.725-3.045-12.943-4.695-18.525 22.206-4.566 38.701-8.247 49.487-10.785 1.014 6.218 2.284 13.197 3.807 20.937-18.907 1.523-35.148 4.314-48.599 8.375z m54.942-138.437c-8.755 7.741-24.49 22.967-47.203 45.68l16.242 16.242 52.658-52.658c10.279 24.743 17.511 41.747 21.698 51.137-5.202 2.03-11.292 4.695-18.525 7.739-5.201-12.308-9.009-21.443-11.547-27.028l-64.206 64.206a982.039 982.039 0 0 0-31.722 33.245l-13.197-13.197c11.293-10.278 28.423-26.774 51.137-49.487l-16.242-16.242c-18.525 18.527-32.991 33.499-43.396 44.919l-13.197-13.197c7.233-6.218 22.206-20.683 44.919-43.396-7.233-7.233-14.465-13.958-21.698-20.175l15.481-15.481c7.739 8.755 14.465 15.988 20.175 21.698 21.698-21.698 36.925-37.433 45.68-47.203l12.943 13.197z" fill="#3D8BFF" p-id="2631"></path></svg>