<?xml version="1.0" standalone="no"?><!DOCTYPE svg PUBLIC "-//W3C//DTD SVG 1.1//EN" "http://www.w3.org/Graphics/SVG/1.1/DTD/svg11.dtd"><svg t="1599186543251" class="icon" viewBox="0 0 1024 1024" version="1.1" xmlns="http://www.w3.org/2000/svg" p-id="3912" xmlns:xlink="http://www.w3.org/1999/xlink" width="128" height="128"><defs><style type="text/css"></style></defs><path d="M947.2 153.6c-12.8-6.4-25.6-6.4-44.8-6.4l-780.8 0c-19.2 0-32 6.4-44.8 6.4C32 172.8 0 217.6 0 268.8l0 492.8c0 51.2 32 96 76.8 115.2 12.8 6.4 25.6 6.4 44.8 6.4l780.8 0c19.2 0 32-6.4 44.8-6.4 44.8-19.2 76.8-64 76.8-115.2L1024 268.8C1024 217.6 992 172.8 947.2 153.6zM966.4 268.8l0 492.8c0 6.4 0 12.8-6.4 25.6-6.4-6.4-6.4-6.4-12.8-12.8l-249.6-224 256-281.6C960 262.4 960 256 960 249.6 960 256 966.4 262.4 966.4 268.8zM902.4 204.8c6.4 0 12.8 0 12.8 0 0 0-6.4 6.4-6.4 12.8L550.4 608c-19.2 25.6-57.6 25.6-83.2 0L115.2 217.6C108.8 217.6 108.8 211.2 102.4 204.8c6.4 0 12.8 0 12.8 0L902.4 204.8zM64 780.8c0-6.4-6.4-12.8-6.4-25.6L57.6 268.8c0-6.4 0-6.4 0-12.8C64 256 64 262.4 70.4 262.4l256 281.6L76.8 768C70.4 768 70.4 774.4 64 780.8zM121.6 819.2c0 0-6.4 0-6.4 0 0 0 6.4-6.4 6.4-6.4l249.6-224 57.6 64C448 672 480 684.8 512 684.8c32 0 64-12.8 83.2-38.4l57.6-64 249.6 224c0 0 6.4 6.4 6.4 6.4 0 0-6.4 0-6.4 0L121.6 812.8z" p-id="3913" fill="#F4516C"></path></svg>