<?xml version="1.0" standalone="no"?><!DOCTYPE svg PUBLIC "-//W3C//DTD SVG 1.1//EN" "http://www.w3.org/Graphics/SVG/1.1/DTD/svg11.dtd"><svg t="1600157265279" class="icon" viewBox="0 0 1024 1024" version="1.1" xmlns="http://www.w3.org/2000/svg" p-id="7830" xmlns:xlink="http://www.w3.org/1999/xlink" width="128" height="128"><defs><style type="text/css"></style></defs><path d="M404.6 789s19 102 123.7 102 129.5-102 129.5-102H404.6z" fill="#DF1813" p-id="7831"></path><path d="M530.3 83.9c-44.9 0-81.6 36.7-81.6 81.6v20.4C346.6 217.1 265 315.2 265 430.7v183.6s-4.8 61.2-40.8 61.2c-24.2 0-61.2 23.8-61.2 61.2 0 37.4 40 61.2 61.2 61.2h612.1c21.2 0 61.2-17 61.2-61.2s-36.3-61.2-61.2-61.2c-36.1 0-40.8-61.2-40.8-61.2V430.7c0-115.5-61.2-213.6-183.6-244.8v-20.4c0-44.9-36.7-81.6-81.6-81.6z m0 40.8c22.5 0 40.8 18.3 40.8 40.8v20.4c0 18.6 12.7 34.9 30.7 39.5C699 250.2 754.7 325 754.7 430.7v183.6c0 1 0 2.1 0.1 3.1 3.8 49.2 30.4 98.9 81.5 98.9 3.4 0 20.4 1 20.4 20.4 0 18.7-20.2 20.4-20.4 20.4H225.1c-5.3-0.8-21.3-10-21.3-20.4 0-12.2 16.1-20.2 20.4-20.4 51 0 77.7-49.6 81.5-98.8 0.1-1.1 0.1-2.1 0.1-3.2V430.7c0-91.8 65.1-178.4 154.8-205.8 17.2-5.2 28.9-21.1 28.9-39v-20.4c0-22.5 18.3-40.8 40.8-40.8z" fill="#333232" p-id="7832"></path><path d="M603.2 315c-5.5 0-10.9-1.9-15.3-5.9-18.1-16.2-47.6-33-47.9-33.2-11-6.3-14.9-20.3-8.6-31.4 6.3-11 20.3-14.9 31.4-8.6 1.4 0.8 34.1 19.5 55.8 38.9 9.5 8.5 10.3 23 1.8 32.5-4.6 5.1-10.9 7.7-17.2 7.7zM703.1 609c-0.6 0-1.3 0-1.9-0.1-12.7-1-22.1-12.1-21.1-24.8 0.1-1 7.9-98.3 0.2-144.9-7-42.6-49.7-90.1-50.1-90.6-8.5-9.4-7.8-24 1.6-32.5s23.9-7.8 32.5 1.6c2.1 2.3 52.2 58 61.4 114.1 8.6 52.2 0.6 151.9 0.2 156.1-0.9 12-11 21.1-22.8 21.1z" fill="#A09F9F" p-id="7833"></path><path d="M528.4 906.6c-75.7 0-133-54.3-142.6-104.7-1.6-8.3 2.1-19.2 11.9-20.6 9.8-1.3 22.1 7.3 23.7 15.7 7.3 38.1 52 79 107 79s99.7-40.8 107-79c1.6-8.3 10.9-17 20.7-15.7 9.8 1.4 16.5 12.2 14.9 20.6-9.7 50.3-66.9 104.7-142.6 104.7z" fill="#333232" p-id="7834"></path></svg>