<?xml version="1.0" standalone="no"?><!DOCTYPE svg PUBLIC "-//W3C//DTD SVG 1.1//EN" "http://www.w3.org/Graphics/SVG/1.1/DTD/svg11.dtd"><svg t="1599119289230" class="icon" viewBox="0 0 1152 1024" version="1.1" xmlns="http://www.w3.org/2000/svg" p-id="10592" xmlns:xlink="http://www.w3.org/1999/xlink" width="144" height="128"><defs><style type="text/css"></style></defs><path d="M577.536 838.08c11.52 0 24.192 3.456 34.56 9.216 20.736 12.672 34.56 35.712 34.56 61.056-2.304 39.168-33.408 71.424-70.272 71.424-38.016 0-67.968-32.256-67.968-71.424 0-25.344 12.672-49.536 34.56-61.056a70.4 70.4 0 0 1 34.56-9.216zM517.056 572.16l87.872 93.184a285.568 285.568 0 0 0-225.536 69.12 49.664 49.664 0 0 1-27.648 9.216 47.808 47.808 0 0 1-34.56-80.64 383.104 383.104 0 0 1 199.872-90.88zM327.04 370.304l69.376 73.664a535.104 535.104 0 0 0-177.088 103.808 53.12 53.12 0 0 1-31.104 12.672 48.64 48.64 0 0 1-44.928-31.104 48.384 48.384 0 0 1 13.824-52.992 652.864 652.864 0 0 1 169.92-106.048z m258.944-51.712h-7.232c155.52 0 305.28 56.384 421.632 157.76a47.552 47.552 0 0 1 0 63.36 47.232 47.232 0 0 1-35.712 16.128 44.8 44.8 0 0 1-26.496-8.064 547.968 547.968 0 0 0-253.44-124.352L585.984 318.592zM146.112 178.368l68.352 72.576c-48.256 24.32-94.208 53.504-136.896 87.168a45.12 45.12 0 0 1-29.952 10.368 47.04 47.04 0 0 1-44.928-32.256 48.384 48.384 0 0 1 14.976-52.992 931.2 931.2 0 0 1 128.448-84.864z m431.424-109.824c99.072 0 196.992 16.128 290.304 48.384a871.936 871.936 0 0 1 264.96 144 51.264 51.264 0 0 1 18.432 32.256 55.68 55.68 0 0 1-9.216 35.712 48.64 48.64 0 0 1-38.016 18.432 49.728 49.728 0 0 1-29.952-10.368 805.12 805.12 0 0 0-496.512-172.8c-42.816 0-85.44 3.52-127.36 10.24l-77.824-82.56a904.512 904.512 0 0 1 205.184-23.296zM159.36 29.056a48 48 0 0 1 62.592-2.752l5.184 4.8L956.416 805.12a48 48 0 0 1-64.64 70.592l-5.248-4.8L157.312 96.896a48 48 0 0 1 1.984-67.84z" fill="#E65D6E" p-id="10593"></path></svg>