<?xml version="1.0" standalone="no"?><!DOCTYPE svg PUBLIC "-//W3C//DTD SVG 1.1//EN" "http://www.w3.org/Graphics/SVG/1.1/DTD/svg11.dtd"><svg t="1571043183108" class="icon" viewBox="0 0 1024 1024" version="1.1" xmlns="http://www.w3.org/2000/svg" p-id="7066" xmlns:xlink="http://www.w3.org/1999/xlink" width="200" height="200"><defs><style type="text/css"></style></defs><path d="M753.6903212 785.12443096c0 15.45545902 12.57347515 28.0297771 28.02809042 28.02977711 15.4402814 0 28.00110938-12.57431809 28.00110937-28.0297771 0-15.43943848-12.56082715-28.00026563-28.00110937-28.00026562C766.26379636 757.12416535 753.6903212 769.6849925 753.6903212 785.12443096zM272.62167328 161.39759907l-28.73636087 12.32052154L367.92949222 297.79349774l0 71.23845026-71.21568466-0.05312L173.21938113 245.73313809l-11.91158047 29.73721316c-9.91746386 24.77763831-14.94617927 50.72898066-14.94617926 77.13395317 0 114.69080238 93.27997459 207.99860175 207.93705002 207.99860174 21.48165417 0 42.76516141-3.35500626 63.32353555-9.97732892L718.14108035 851.17227542c17.50859775 17.53979589 40.80730132 27.19924612 65.60770523 27.19924613 24.81220898 0 48.10248001-9.66113691 65.5663895-27.18828479 17.54232468-17.47571375 27.20346239-40.7659856 27.2034624-65.58156711 0-24.80377643-9.65945105-48.10416669-27.19503066-65.60517563L550.60407644 421.2786495c7.7403771-22.06429074 11.66199939-45.1479831 11.6619994-68.67434508 0-114.6410549-93.29430927-207.90838147-207.96740442-207.90838148C326.04545218 144.69592295 298.5671135 150.31401995 272.62167328 161.39759907zM519.92671978 352.60430442c0 22.67306542-4.54304497 44.70109882-13.50181439 65.46689456l-5.70831728 13.19742747L819.38656086 749.93522666c9.04983262 9.04983262 14.24043841 22.0482702 14.24043841 35.66222753 0 13.6131144-5.18891913 26.60227652-14.24634137 35.64620701-9.51020865 9.53550384-22.1646286 14.78681845-35.63271607 14.78681844-13.46049865 0-26.12672369-5.25300128-35.66728591-14.79187765l-319.82512748-319.88583627-12.95037598 5.13073992c-19.61907358 7.81373392-40.14456289 11.77498525-61.00648104 11.77498526-91.30946732 0-165.59600729-74.3126781-165.5960073-165.65418648 0-9.73533664 0.86678751-19.45465357 2.58349823-29.01629553L279.18244423 411.31734113l131.08809071 0.09696533 0-131.15470249L320.52094797 190.48387888c11.01106604-2.28922888 22.33157822-3.44606946 33.77772345-3.44606946C445.62668887 187.03780859 519.92671978 261.31085764 519.92671978 352.60430442z" p-id="7067" fill="#bfbfbf"></path></svg>