<?xml version="1.0" standalone="no"?><!DOCTYPE svg PUBLIC "-//W3C//DTD SVG 1.1//EN" "http://www.w3.org/Graphics/SVG/1.1/DTD/svg11.dtd"><svg t="1571034962985" class="icon" viewBox="0 0 1024 1024" version="1.1" xmlns="http://www.w3.org/2000/svg" p-id="8247" xmlns:xlink="http://www.w3.org/1999/xlink" width="200" height="200"><defs><style type="text/css"></style></defs><path d="M512.00301593 974.23231861c-123.46535159 0-239.54223788-48.08007589-326.84497772-135.38432495-87.30424782-87.30575703-135.38432369-203.3811341-135.3843237-326.84648569s48.08007589-239.5407299 135.3843237-326.84497772 203.37962614-135.38432369 326.84497772-135.38432371 239.5407299 48.08007589 326.84497773 135.38432371 135.38432369 203.37962614 135.38432495 326.84497772-48.08007589 239.5407299-135.38432495 326.84648569c-87.30424782 87.30424782-203.37811817 135.38432369-326.84497773 135.38432495z m0-886.75465462c-234.08421435 0-424.5253532 190.44113885-424.52535194 424.52384398 0 234.08421435 190.44113885 424.5253532 424.52535194 424.5253532s424.52384522-190.44113885 424.52384524-424.5253532c0.00150797-234.08270638-190.43963088-424.52384522-424.52384524-424.52384398z" p-id="8248"></path><path d="M512.00301593 680.90765955c-93.1347865 0-168.90615157-75.76985586-168.90615031-168.90615158s75.77136381-168.90615157 168.90615031-168.90615157c93.1347865 0 168.90615157 75.77136381 168.90615157 168.90615157s-75.77136381 168.90615157-168.90615157 168.90615158z m0-307.64763561c-76.50282118 0-138.74299199 62.2401708-138.74299199 138.74299199s62.2401708 138.74299199 138.74299199 138.74299199c76.50432915 0 138.74299199-62.2401708 138.74299199-138.74299199s-62.23866285-138.74299199-138.74299199-138.74299199zM512.00301593 323.47723794c-59.03986022 0-107.07469085-48.03332267-107.07469086-107.07469087s48.03483065-107.0731829 107.07469086-107.07318288 107.0731829 48.03332267 107.07318291 107.07469085-48.03181471 107.0731829-107.07318291 107.0731829z m0-183.98471419c-42.4094016 0-76.91153129 34.50212967-76.91153128 76.91153129s34.50212967 76.91153129 76.91153128 76.91153253c42.40789365 0 76.91002331-34.50212967 76.91002457-76.91153253S554.41090958 139.49252375 512.00301593 139.49252375zM512 914.67515973c-59.03986022 0-107.07469085-48.03332267-107.07469085-107.0731829 0-59.04136819 48.03332267-107.07619884 107.07469085-107.07619883s107.0731829 48.03483065 107.0731829 107.07619883-48.03181471 107.0731829-107.0731829 107.0731829z m0-183.98622215c-42.4094016 0-76.91153129 34.50363764-76.91153129 76.91303925 0 42.40789365 34.50212967 76.91002331 76.91153129 76.91002456 42.40789365 0 76.91002331-34.50212967 76.91002331-76.91002456 0-42.4094016-34.50212967-76.9130405-76.91002331-76.91303925zM770.16648034 471.28425945c-59.03986022 0-107.07469085-48.03332267-107.07469086-107.07469085 0-59.03986022 48.03483065-107.0731829 107.07469086-107.0731829s107.0731829 48.03332267 107.0731829 107.0731829c0 59.04136819-48.03332267 107.07469085-107.0731829 107.07469085z m0-183.98471416c-42.4094016 0-76.91153129 34.50212967-76.91153129 76.91002331 0 42.4094016 34.50212967 76.91153129 76.91153129 76.91153129 42.40789365 0 76.91002331-34.50212967 76.91002331-76.91153129 0-42.40789365-34.50212967-76.91002331-76.91002331-76.91002331zM770.16648034 766.86813944c-59.03986022 0-107.07469085-48.03332267-107.07469086-107.07318289s48.03483065-107.07469085 107.07469086-107.07469212 107.0731829 48.03483065 107.0731829 107.07469212-48.03332267 107.0731829-107.0731829 107.07318289z m0-183.98471542c-42.4094016 0-76.91153129 34.50212967-76.91153129 76.91153253 0 42.40789365 34.50212967 76.91002331 76.91153129 76.91002332 42.40789365 0 76.91002331-34.50212967 76.91002331-76.91002332 0-42.4094016-34.50212967-76.91153129-76.91002331-76.91153253zM253.84106074 471.28425945c-59.03986022 0-107.0731829-48.03332267-107.0731829-107.07469085 0-59.03986022 48.03332267-107.0731829 107.0731829-107.0731829 59.04136819 0 107.07469085 48.03332267 107.07469087 107.0731829 0 59.04136819-48.03483065 107.07469085-107.07469087 107.07469085z m0-183.98471416c-42.40789365 0-76.91002331 34.50212967-76.91002331 76.91002331 0 42.4094016 34.50212967 76.91153129 76.91002331 76.91153129 42.4094016 0 76.91153129-34.50212967 76.91153129-76.91153129 0-42.40789365-34.50363764-76.91002331-76.91153129-76.91002331zM253.84106074 766.86813944c-59.03986022 0-107.0731829-48.03332267-107.0731829-107.07318289s48.03332267-107.07469085 107.0731829-107.07469212c59.04136819 0 107.07469085 48.03483065 107.07469087 107.07469212s-48.03483065 107.0731829-107.07469087 107.07318289z m0-183.98471542c-42.40789365 0-76.91002331 34.50212967-76.91002331 76.91153253 0 42.40789365 34.50212967 76.91002331 76.91002331 76.91002332 42.4094016 0 76.91153129-34.50212967 76.91153129-76.91002332 0-42.4094016-34.50363764-76.91153129-76.91153129-76.91153253z" p-id="8249"></path></svg>