<?xml version="1.0" standalone="no"?><!DOCTYPE svg PUBLIC "-//W3C//DTD SVG 1.1//EN" "http://www.w3.org/Graphics/SVG/1.1/DTD/svg11.dtd"><svg t="1571037584287" class="icon" viewBox="0 0 1024 1024" version="1.1" xmlns="http://www.w3.org/2000/svg" p-id="5202" xmlns:xlink="http://www.w3.org/1999/xlink" width="200" height="200"><defs><style type="text/css"></style></defs><path d="M556.089 826.311c-7.111 0-15.645-2.844-21.333-8.533-11.378-11.378-9.956-29.867 1.422-39.822L640 679.822 324.267 601.6c-9.956-2.844-18.49-11.378-21.334-21.333-2.844-9.956 1.423-21.334 8.534-28.445l304.355-260.266c11.378-9.956 29.867-8.534 39.822 2.844 9.956 11.378 8.534 29.867-2.844 39.822L392.533 558.933l312.89 76.8c9.955 2.845 18.488 9.956 21.333 19.911s0 21.334-8.534 28.445L576 817.778c-5.689 5.689-12.8 8.533-19.911 8.533z" fill="#bfbfbf" p-id="5203"></path><path d="M548.978 312.889a88.178 88.178 0 1 0 176.355 0 88.178 88.178 0 1 0-176.355 0z" fill="#bfbfbf" p-id="5204"></path><path d="M264.533 576a66.844 66.844 0 1 0 133.69 0 66.844 66.844 0 1 0-133.69 0zM637.156 659.911a71.111 71.111 0 1 0 142.222 0 71.111 71.111 0 1 0-142.222 0z" fill="#bfbfbf" p-id="5205"></path><path d="M496.356 812.089a45.511 45.511 0 1 0 91.022 0 45.511 45.511 0 1 0-91.022 0z" fill="#bfbfbf" p-id="5206"></path></svg>